# xmcd CD database file
#
# Track frame offsets:
#	150
#	20372
#	43000
#	65910
#	98002
#	129192
#	160880
#	179147
#	199497
#	221867
#	247862
#	265755
#	284830
#	300850
#
# Disc length: 4509 seconds
#
# Revision: 10
# Processed by: cddbd v1.5.2PL0 Copyright (c) Steve Scherf et al.
# Submitted via: CDex 1.79
#
DISCID=d0119b0e
DTITLE=Grace Jones - Private Life The Compass Point Sessions - Disc 2
DYEAR=1998
DGENRE=Dance
TTITLE0=Walking In The Rain
TTITLE1=Cry Now, Laugh Later
TTITLE2=Nightclubbing
TTITLE3=The Apple Stretching
TTITLE4=Nipple To The Bottle [12'' Version]
TTITLE5=My Jamaican Guy [12'' Version]
TTITLE6=Feel Up
TTITLE7=I've Seen That Face Before (Libertango)
TTITLE8=Demolition Man [Long Version]
TTITLE9=Unlimited Capacity For Love
TTITLE10=Ring Of Fire [Demo]
TTITLE11=Man Around The House
TTITLE12=Living My Life [7'' Version]
TTITLE13=Slave To The Rhythm [Hot Blooded Version]
EXTD=YEAR: 1998
EXTT0=
EXTT1=
EXTT2=
EXTT3=
EXTT4=
EXTT5=
EXTT6=
EXTT7=
EXTT8=
EXTT9=
EXTT10=
EXTT11=
EXTT12=
EXTT13=
PLAYORDER=
